<svg xmlns="http://www.w3.org/2000/svg" version="1.1" xmlns:xlink="http://www.w3.org/1999/xlink" xmlns:svgjs="http://svgjs.dev/svgjs" viewBox="0 0 16.51064484954982 12.423095528874713"><g transform="matrix(1,0,0,1,1.1910662114936583,10.260749317381055)"><g><path d=" M 0.236664 0.06976799999999994 L 0.236664 0.47879999999999995 L 0.746928 0.47879999999999995 L 0.746928 0.541728 L 0.236664 0.541728 L 0.236664 0.96444 L 0.16689600000000002 0.96444 L 0.16689600000000002 0.006839999999999957 L 0.8071200000000001 0.006839999999999957 L 0.8071200000000001 0.06976799999999994 L 0.236664 0.06976799999999994 Z M 1.8218770171875 0.96444 L 1.5934210171875 0.644328 Q 1.5428050171875 0.651168 1.5003970171875 0.651168 L 1.2267970171875 0.651168 L 1.2267970171875 0.96444 L 1.1570290171875 0.96444 L 1.1570290171875 0.006839999999999957 L 1.5003970171875 0.006839999999999957 Q 1.6809730171875001 0.006839999999999957 1.7835730171875 0.09233999999999987 Q 1.8861730171875002 0.1778399999999999 1.8861730171875002 0.329688 Q 1.8861730171875002 0.44323199999999996 1.8280330171875 0.520524 Q 1.7698930171875 0.5978159999999999 1.6618210171875 0.62928 L 1.9012210171875 0.96444 L 1.8218770171875 0.96444 Z M 1.5003970171875 0.5896079999999999 Q 1.6536130171875 0.5896079999999999 1.7343250171875 0.521892 Q 1.8150370171875 0.4541759999999999 1.8150370171875 0.329688 Q 1.8150370171875 0.20519999999999994 1.7343250171875 0.13748399999999994 Q 1.6536130171875 0.06976799999999994 1.5003970171875 0.06976799999999994 L 1.2267970171875 0.06976799999999994 L 1.2267970171875 0.5896079999999999 L 1.5003970171875 0.5896079999999999 Z M 2.9296433390625003 0.901512 L 2.9296433390625003 0.96444 L 2.2688993390625 0.96444 L 2.2688993390625 0.006839999999999957 L 2.9091233390625 0.006839999999999957 L 2.9091233390625 0.06976799999999994 L 2.3386673390625003 0.06976799999999994 L 2.3386673390625003 0.44733599999999996 L 2.8489313390625 0.44733599999999996 L 2.8489313390625 0.508896 L 2.3386673390625003 0.508896 L 2.3386673390625003 0.901512 L 2.9296433390625003 0.901512 Z M 3.9717109265625004 0.901512 L 3.9717109265625004 0.96444 L 3.3109669265625 0.96444 L 3.3109669265625 0.006839999999999957 L 3.9511909265625 0.006839999999999957 L 3.9511909265625 0.06976799999999994 L 3.3807349265625004 0.06976799999999994 L 3.3807349265625004 0.44733599999999996 L 3.8909989265625002 0.44733599999999996 L 3.8909989265625002 0.508896 L 3.3807349265625004 0.508896 L 3.3807349265625004 0.901512 L 3.9717109265625004 0.901512 Z M 5.0137785140625 0.901512 L 5.0137785140625 0.96444 L 4.353034514062501 0.96444 L 4.353034514062501 0.006839999999999957 L 4.993258514062501 0.006839999999999957 L 4.993258514062501 0.06976799999999994 L 4.422802514062501 0.06976799999999994 L 4.422802514062501 0.44733599999999996 L 4.933066514062501 0.44733599999999996 L 4.933066514062501 0.508896 L 4.422802514062501 0.508896 L 4.422802514062501 0.901512 L 5.0137785140625 0.901512 Z M 6.174862101562501 0.006839999999999957 L 6.174862101562501 0.96444 L 6.1174061015625005 0.96444 L 5.464870101562501 0.13269599999999993 L 5.464870101562501 0.96444 L 5.395102101562501 0.96444 L 5.395102101562501 0.006839999999999957 L 5.453926101562501 0.006839999999999957 L 6.105094101562501 0.838584 L 6.105094101562501 0.006839999999999957 L 6.174862101562501 0.006839999999999957 Z M 6.818868407812501 0.06976799999999994 L 6.474132407812501 0.06976799999999994 L 6.474132407812501 0.006839999999999957 L 7.233372407812501 0.006839999999999957 L 7.233372407812501 0.06976799999999994 L 6.888636407812501 0.06976799999999994 L 6.888636407812501 0.96444 L 6.818868407812501 0.96444 L 6.818868407812501 0.06976799999999994 Z M 8.1975227765625 0.96444 L 7.969066776562501 0.644328 Q 7.918450776562501 0.651168 7.876042776562501 0.651168 L 7.602442776562501 0.651168 L 7.602442776562501 0.96444 L 7.5326747765625015 0.96444 L 7.5326747765625015 0.006839999999999957 L 7.876042776562501 0.006839999999999957 Q 8.056618776562502 0.006839999999999957 8.1592187765625 0.09233999999999987 Q 8.261818776562501 0.1778399999999999 8.261818776562501 0.329688 Q 8.261818776562501 0.44323199999999996 8.203678776562501 0.520524 Q 8.145538776562502 0.5978159999999999 8.037466776562502 0.62928 L 8.276866776562501 0.96444 L 8.1975227765625 0.96444 Z M 7.876042776562501 0.5896079999999999 Q 8.029258776562502 0.5896079999999999 8.109970776562502 0.521892 Q 8.1906827765625 0.4541759999999999 8.1906827765625 0.329688 Q 8.1906827765625 0.20519999999999994 8.109970776562502 0.13748399999999994 Q 8.029258776562502 0.06976799999999994 7.876042776562501 0.06976799999999994 L 7.602442776562501 0.06976799999999994 L 7.602442776562501 0.5896079999999999 L 7.876042776562501 0.5896079999999999 Z M 9.305289098437502 0.901512 L 9.305289098437502 0.96444 L 8.6445450984375 0.96444 L 8.6445450984375 0.006839999999999957 L 9.2847690984375 0.006839999999999957 L 9.2847690984375 0.06976799999999994 L 8.7143130984375 0.06976799999999994 L 8.7143130984375 0.44733599999999996 L 9.224577098437502 0.44733599999999996 L 9.224577098437502 0.508896 L 8.7143130984375 0.508896 L 8.7143130984375 0.901512 L 9.305289098437502 0.901512 Z M 10.313156685937502 0.09233999999999987 Q 10.4157566859375 0.1778399999999999 10.4157566859375 0.329688 Q 10.4157566859375 0.48016799999999993 10.313156685937502 0.565668 Q 10.210556685937501 0.651168 10.0299806859375 0.651168 L 9.7563806859375 0.651168 L 9.7563806859375 0.96444 L 9.6866126859375 0.96444 L 9.6866126859375 0.006839999999999957 L 10.0299806859375 0.006839999999999957 Q 10.210556685937501 0.006839999999999957 10.313156685937502 0.09233999999999987 Z M 10.263908685937501 0.5212079999999999 Q 10.344620685937501 0.4541759999999999 10.344620685937501 0.329688 Q 10.344620685937501 0.20519999999999994 10.263908685937501 0.13748399999999994 Q 10.183196685937501 0.06976799999999994 10.0299806859375 0.06976799999999994 L 9.7563806859375 0.06976799999999994 L 9.7563806859375 0.5882399999999999 L 10.0299806859375 0.5882399999999999 Q 10.183196685937501 0.5882399999999999 10.263908685937501 0.5212079999999999 Z M 11.442790968750002 0.96444 L 11.214334968750002 0.644328 Q 11.16371896875 0.651168 11.12131096875 0.651168 L 10.84771096875 0.651168 L 10.84771096875 0.96444 L 10.77794296875 0.96444 L 10.77794296875 0.006839999999999957 L 11.12131096875 0.006839999999999957 Q 11.30188696875 0.006839999999999957 11.404486968750001 0.09233999999999987 Q 11.50708696875 0.1778399999999999 11.50708696875 0.329688 Q 11.50708696875 0.44323199999999996 11.44894696875 0.520524 Q 11.39080696875 0.5978159999999999 11.28273496875 0.62928 L 11.52213496875 0.96444 L 11.442790968750002 0.96444 Z M 11.12131096875 0.5896079999999999 Q 11.274526968750001 0.5896079999999999 11.355238968750001 0.521892 Q 11.435950968750001 0.4541759999999999 11.435950968750001 0.329688 Q 11.435950968750001 0.20519999999999994 11.355238968750001 0.13748399999999994 Q 11.274526968750001 0.06976799999999994 11.12131096875 0.06976799999999994 L 10.84771096875 0.06976799999999994 L 10.84771096875 0.5896079999999999 L 11.12131096875 0.5896079999999999 Z M 11.889813290625002 0.006839999999999957 L 11.959581290625001 0.006839999999999957 L 11.959581290625001 0.96444 L 11.889813290625002 0.96444 L 11.889813290625002 0.006839999999999957 Z M 12.471600311718753 0.935028 Q 12.376524311718752 0.898776 12.323172311718752 0.84132 L 12.354636311718751 0.7893359999999999 Q 12.405252311718751 0.842688 12.490752311718753 0.876204 Q 12.576252311718752 0.90972 12.670644311718751 0.90972 Q 12.807444311718752 0.90972 12.877212311718752 0.8577359999999999 Q 12.946980311718752 0.805752 12.946980311718752 0.722304 Q 12.946980311718752 0.6580079999999999 12.910044311718751 0.6197039999999999 Q 12.873108311718752 0.5813999999999999 12.818388311718753 0.5608799999999999 Q 12.763668311718751 0.54036 12.670644311718751 0.5184719999999999 Q 12.565308311718752 0.4924799999999999 12.501696311718751 0.46785599999999994 Q 12.438084311718752 0.44323199999999996 12.393624311718751 0.39193199999999995 Q 12.349164311718752 0.34063199999999993 12.349164311718752 0.2544479999999999 Q 12.349164311718752 0.18467999999999996 12.386100311718751 0.12653999999999987 Q 12.423036311718752 0.0683999999999999 12.498960311718752 0.0341999999999999 Q 12.574884311718751 -1.1102230246251565e-16 12.688428311718752 -1.1102230246251565e-16 Q 12.767772311718751 -1.1102230246251565e-16 12.844380311718751 0.023255999999999943 Q 12.920988311718752 0.04651199999999989 12.977076311718752 0.08618399999999993 L 12.951084311718752 0.14227199999999995 Q 12.893628311718752 0.10259999999999991 12.824544311718752 0.08207999999999993 Q 12.755460311718751 0.06155999999999995 12.688428311718752 0.06155999999999995 Q 12.555732311718751 0.06155999999999995 12.487332311718752 0.1149119999999999 Q 12.418932311718752 0.16826399999999997 12.418932311718752 0.25307999999999997 Q 12.418932311718752 0.3173759999999999 12.455868311718753 0.3556799999999999 Q 12.492804311718752 0.3939839999999999 12.547524311718751 0.414504 Q 12.602244311718753 0.43502399999999997 12.696636311718752 0.4582799999999999 Q 12.801972311718751 0.4842719999999999 12.864900311718753 0.508896 Q 12.927828311718752 0.53352 12.972288311718753 0.583452 Q 13.016748311718752 0.633384 13.016748311718752 0.7182 Q 13.016748311718752 0.787968 12.979128311718751 0.845424 Q 12.941508311718753 0.9028799999999999 12.863532311718751 0.9370799999999999 Q 12.785556311718752 0.9712799999999999 12.672012311718753 0.9712799999999999 Q 12.566676311718751 0.9712799999999999 12.471600311718753 0.935028 Z M 14.041035239062502 0.901512 L 14.041035239062502 0.96444 L 13.380291239062501 0.96444 L 13.380291239062501 0.006839999999999957 L 14.020515239062501 0.006839999999999957 L 14.020515239062501 0.06976799999999994 L 13.450059239062501 0.06976799999999994 L 13.450059239062501 0.44733599999999996 L 13.960323239062502 0.44733599999999996 L 13.960323239062502 0.508896 L 13.450059239062501 0.508896 L 13.450059239062501 0.901512 L 14.041035239062502 0.901512 Z" fill="#404040" fill-rule="nonzero"></path></g><g></g><g clip-path="url(&quot;#SvgjsClipPath1018&quot;)"><g clip-path="url(&quot;#SvgjsClipPath1008&quot;)"><path d=" M 9.299701194350044 -4.520871596038911 C 8.215575313154769 -4.520871596038911 7.48604893893379 -5.580152925790139 7.47678869703191 -5.594156218422217 C 7.388477609626219 -5.714313503588026 7.250929138449563 -5.862251514459461 7.114284105507249 -5.850506817413184 C 6.9713150049246195 -5.83943969904265 6.84799568593866 -5.663269243348413 6.808921982303912 -5.590090746367734 C 6.720250502602195 -5.310584848306572 6.519637974213507 -5.080367046670142 6.254888485101406 -4.954296088958409 C 6.0573001154632 -4.885162455016845 5.839710590917371 -4.902631949448898 5.655683076182446 -5.002404174936439 C 5.465118976442363 -5.0976721078124525 5.370890628117561 -5.316361989096674 5.432533832303084 -5.520300142765755 L 5.616835232106281 -6.152706906796321 C 5.710075752983035 -6.474079119856569 5.941038470521402 -6.737551990687404 6.247435119668201 -6.872069600881094 L 6.943760138777576 -7.178335162318754 C 7.225227524883181 -7.286073734660947 7.534507396702242 -7.297275497292954 7.823031400338655 -7.210181360078884 L 9.718896535078885 -6.761398417175743 L 10.492465523223428 -4.952940931606883 L 10.385859811572562 -4.881569311094867 C 10.06859087600486 -4.654308834823762 9.689890859261292 -4.5285479850131125 9.299701194350044 -4.520871596038911 Z M 7.129868415049427 -6.160611991346759 C 7.3809697488500685 -6.1358121874538885 7.604519034059758 -5.990959657391433 7.729751402644141 -5.771907691026532 C 7.774923314360611 -5.704149823451844 8.764865759627046 -4.278750149238631 10.105568099371865 -5.070162042511184 L 9.495747291199528 -6.496013435841533 L 7.756628690115451 -6.907981270695728 C 7.532182010183154 -6.979914881993711 7.2902060211935495 -6.975307328690563 7.068660474673617 -6.894881416297963 L 6.372335455564242 -6.588615854860302 C 6.149633157879703 -6.490981598032367 5.98175999218588 -6.299528416457458 5.9140664112006585 -6.0659768363007185 L 5.729990870956045 -5.433570072270192 C 5.711151243238291 -5.374046547920065 5.737332961781174 -5.309540864553551 5.7923281091247745 -5.279985572434196 C 5.899545369815922 -5.218203213647494 6.0279683880776105 -5.204901085157463 6.1455724587475675 -5.243396323943857 C 6.330371563596713 -5.343017143724296 6.467412240948618 -5.512690428925405 6.5259199554002425 -5.714313503588064 L 6.530888865689049 -5.725380621958598 C 6.638194187890437 -5.949528689808037 6.844813932028344 -6.110037668850759 7.088536115828863 -6.158579255319507 C 7.102313548902378 -6.159934412671015 7.116316841534486 -6.160611991346759 7.129868415049427 -6.160611991346759 Z" fill="#404040" transform="matrix(1,0,0,1,0,0)" fill-rule="nonzero"></path></g><g clip-path="url(&quot;#SvgjsClipPath1008&quot;)"><path d=" M 9.427537704507655 -3.5523858088377898 L 8.297110613803 -5.12775622994967 L 8.798067114738645 -4.920191295612496 C 9.268494855626956 -4.736429920303252 9.801008380040427 -4.814932720515152 10.198396377949203 -5.1266269321567695 L 10.358304945425504 -5.265304701126335 L 10.892236941914176 -4.017882359076024 Z M 9.107946429113634 -4.528324961472136 L 9.547920849232048 -3.915116259921054 L 10.473945039419677 -4.208733686078085 L 10.235211485998136 -4.766155076659306 C 9.900560549762071 -4.55321726427154 9.500096789853703 -4.46872751488594 9.107946429113628 -4.528324961472136 Z" fill="#404040" transform="matrix(1,0,0,1,0,0)" fill-rule="nonzero"></path></g><g clip-path="url(&quot;#SvgjsClipPath1008&quot;)"><path d=" M 0.356114393606223 -9.069683105887396 L 0.356114393606223 -3.643181351387902 L 1.4174284593846764 -3.222630853307569 L 3.3196176617652116 -7.868336113787887 L 0.356114393606223 -9.069683105887396 Z" fill="#4e888f" transform="matrix(1,0,0,1,0,0)" fill-rule="nonzero"></path></g><g clip-path="url(&quot;#SvgjsClipPath1008&quot;)"><path d=" M 3.4029598388820985 -3.9153421194796305 L 1.937583022799824 -4.485411645341478 L 2.0496093638566686 -4.773834301651136 L 3.2362754846483255 -4.312177363908817 L 4.317691051140607 -6.839997543562456 L 3.1059545193463105 -7.35021428639998 L 3.225885944953537 -7.635474908889486 L 4.724689975705998 -7.004197442651823 L 3.4029598388820985 -3.9153421194796305 Z" fill="#404040" transform="matrix(1,0,0,1,0,0)" fill-rule="nonzero"></path></g><g clip-path="url(&quot;#SvgjsClipPath1008&quot;)"><path d=" M 13.77239803295628 -8.776065679730344 L 13.77239803295628 -3.349563925230849 L 12.711083967177824 -2.929013427150518 L 10.80866890523871 -7.574718687630835 L 13.77239803295628 -8.776065679730344 Z" fill="#4e888f" transform="matrix(1,0,0,1,0,0)" fill-rule="nonzero"></path></g><g clip-path="url(&quot;#SvgjsClipPath1008&quot;)"><path d=" M 10.725326728121821 -3.6217246933225793 L 9.403822450856504 -6.710805876053353 L 10.902400622050385 -7.341857482732434 L 11.022557907216193 -7.056822719801509 L 9.810821375421895 -6.546380117405404 L 10.892011082355596 -4.018559937751764 L 12.078903062705834 -4.480216875494083 L 12.190929403762677 -4.191794219184425 L 10.725326728121821 -3.6217246933225793 Z" fill="#404040" transform="matrix(1,0,0,1,0,0)" fill-rule="nonzero"></path></g><g clip-path="url(&quot;#SvgjsClipPath1008&quot;)"><path d=" M 9.342840370039273 -2.7060900428297465 C 9.185263184940652 -2.7061444563968715 9.03477172763439 -2.771575524790885 8.92725878224776 -2.8867776896956245 L 7.512248647729345 -4.388292035151062 C 7.484080533267344 -4.418131177566155 7.46894095899403 -4.457950865278601 7.470169742265689 -4.498966803450026 C 7.471398525537357 -4.539982741621432 7.488894698876641 -4.578824705490096 7.5187985749282324 -4.606924087858808 C 7.548608301546322 -4.635120957602133 7.588410879019718 -4.650300372108528 7.629426433613135 -4.649113971769062 C 7.670441988206542 -4.647927571429598 7.709300602584037 -4.630472833191979 7.737430627635944 -4.600600020218464 L 9.152440762154349 -3.098859815204439 C 9.215061162847 -3.0307726016054266 9.309280390879856 -3.001318327394042 9.399531119243436 -3.021615846169275 C 9.49022914071498 -3.0398014060659238 9.56434868987072 -3.1049680712353815 9.593996199182834 -3.1925915320161273 C 9.618785124447367 -3.2616998253885328 9.605775437962505 -3.338730863785764 9.559665546278325 -3.3958651347401716 L 8.52906838046707 -4.688459388506967 C 8.475868397553734 -4.755212944756467 8.486783801709281 -4.852440896586423 8.553461212793966 -4.9057362838631855 C 8.620347550984619 -4.958908030975005 8.717654324462234 -4.947894076344627 8.770963967708763 -4.88111759197773 L 9.801561133520018 -3.5887491977695225 C 9.91420986762831 -3.448374966472196 9.9461696393579 -3.2596926777584834 9.886032608429822 -3.090051292419707 C 9.820247971572797 -2.9007673932517113 9.659875966584508 -2.759948766411723 9.463675233880819 -2.7191898972274737 C 9.423967420644358 -2.7106001465300347 9.383466470091989 -2.7062093892739236 9.342840370039273 -2.7060900428297465 Z" fill="#404040" transform="matrix(1,0,0,1,0,0)" fill-rule="nonzero"></path></g><g clip-path="url(&quot;#SvgjsClipPath1008&quot;)"><path d=" M 8.636351670793687 -2.1956474404336346 C 8.425224329403205 -2.1955543248708507 8.22337169418438 -2.2823893516768488 8.078252701536702 -2.4357361512067017 L 6.887295249131981 -3.68135161678833 C 6.858924960498848 -3.710984465516974 6.843505930487036 -3.7506845990544724 6.844438056307192 -3.7916981351414636 C 6.845370182127353 -3.8327116712284557 6.862576911515144 -3.871670310234127 6.892264159420792 -3.899983669495998 C 6.95396507025183 -3.9590022807294147 7.051812871939199 -3.956879549494449 7.110896212128508 -3.8952406187658077 L 8.301853664533224 -2.649399293625592 C 8.415451671835825 -2.5296705545544986 8.584171800776256 -2.479424478419273 8.744764258913207 -2.517497311413506 C 8.900666602001975 -2.551897907028968 9.026469761380211 -2.6666868363111567 9.074970933560602 -2.8187939625623493 L 9.080617422525158 -2.836862727248951 C 9.105705318955101 -2.918371641114784 9.191723622366744 -2.9645032370896436 9.273501485554489 -2.9403064050796273 C 9.355258859641662 -2.9155348976237834 9.401465981058571 -2.829187235282319 9.37671930382662 -2.7474223420503145 L 9.369265938393406 -2.7234812288405843 C 9.287681224992735 -2.4675910340838136 9.076268928214342 -2.2743268229930456 8.814103143398 -2.2159748007060944 C 8.755801984402739 -2.2025571978290035 8.696176823560503 -2.1957385644416894 8.63635167079369 -2.1956474404336346 Z" fill="#404040" transform="matrix(1,0,0,1,0,0)" fill-rule="nonzero"></path></g><g clip-path="url(&quot;#SvgjsClipPath1008&quot;)"><path d=" M 7.870687767199528 -1.7391852725387196 C 7.856232755450259 -1.7391852725387196 7.842229462818152 -1.7391852725387196 7.828452029744628 -1.740540429890208 C 7.623451924276257 -1.7547060058972201 7.432572260147831 -1.850064543385546 7.29813378619327 -2.0054736921073184 L 6.313386110774229 -3.0990856747630264 C 6.256265989307656 -3.1626657623482934 6.261420048659445 -3.2604918300451056 6.324904948261929 -3.3177177274707335 C 6.388529717715642 -3.374711246267517 6.486253365609432 -3.3695625830003824 6.543537000969635 -3.3061988899830244 L 7.528284676388676 -2.212361047768728 C 7.608444256023974 -2.1189210203216984 7.721880074287097 -2.0604205483317184 7.8444880584039725 -2.049290446472275 C 8.050844924945004 -2.050939334037902 8.237488576683607 -2.172196021852967 8.32285860348138 -2.360073199081576 C 8.367356568689441 -2.4329438376243893 8.462475144503301 -2.4559906338895745 8.53539244810737 -2.4115691784383264 C 8.608291415876721 -2.3669840499385986 8.631330645447077 -2.27179565408212 8.586888427464144 -2.1988094742537676 C 8.451446041714497 -1.925012523161726 8.176018944218294 -1.748256249618775 7.870687767199528 -1.7391852725387196 Z" fill="#404040" transform="matrix(1,0,0,1,0,0)" fill-rule="nonzero"></path></g><g clip-path="url(&quot;#SvgjsClipPath1008&quot;)"><path d=" M 6.4554517731225305 -6.65863231802083 C 5.822319130854116 -6.777874104955867 5.176409621604932 -6.8146183694688744 4.533838648703916 -6.767948344374673 L 4.508316518584104 -7.076246641839604 C 5.182576330429795 -7.126830582814453 5.860566692209388 -7.087793163081664 6.524564798048726 -6.96015482872828 Z" fill="#404040" transform="matrix(1,0,0,1,0,0)" fill-rule="nonzero"></path></g><g clip-path="url(&quot;#SvgjsClipPath1008&quot;)"><path d=" M 7.117446139327396 -1.5000000000000036 C 6.972195394173592 -1.4999101820817176 6.832556762971611 -1.5560894342870517 6.727838400772846 -1.6567465336561513 L 6.266181463030522 -2.0998829875947127 C 5.386261839646659 -2.9626044208917346 4.442501474868299 -3.7577036530101786 3.4429369807512122 -4.478409999025385 L 3.618881576886824 -4.732953721547707 C 4.632715445644538 -4.002431012849769 5.589989920473541 -3.1964601146086133 6.482554920152418 -2.321902933681141 L 6.942856700543239 -1.8798957775354799 C 7.011487519138582 -1.8134285900544223 7.1117986392061505 -1.791477333614182 7.201917614237192 -1.8232050283313255 C 7.285409926995264 -1.8496603258754298 7.346679565314862 -1.9211707465998762 7.360019305244833 -2.0077322876931003 L 7.667865883592573 -1.9747567921400888 L 7.665607288006753 -1.9589466230393073 C 7.634664474538248 -1.7580447973071154 7.492822504307278 -1.5918920578256985 7.29926308398618 -1.529813461732882 C 7.240679783557619 -1.5100632307493287 7.179269069292234 -1.499993399341843 7.117446139327396 -1.499999999999984 Z" fill="#404040" transform="matrix(1,0,0,1,0,0)" fill-rule="nonzero"></path></g><g clip-path="url(&quot;#SvgjsClipPath1008&quot;)"><path d=" M 4.44530170173964 -3.200270757007921 C 4.329424604349186 -3.199983603867328 4.217034699152075 -3.2398947917924366 4.1272914432556895 -3.3132005362990924 C 4.028408485703148 -3.3936558946977895 3.967051284169896 -3.5113048563594242 3.9576709147603437 -3.6384383006576853 C 3.947326158291762 -3.765500263461666 3.989905455125099 -3.891195001522463 4.075343744781744 -3.9858103017573443 L 4.196630327740472 -4.1213260369067575 L 4.4272329370530485 -3.914890400362485 L 4.305720494535742 -3.779374665213071 C 4.277089676554052 -3.7473272470630157 4.2627379126598655 -3.7050058523977896 4.26596921222525 -3.662153554308847 C 4.269133554701508 -3.6192178267442454 4.289893375620078 -3.5794962796323464 4.323337540105158 -3.5523858088377898 C 4.403096350750934 -3.4866245735995633 4.520648386397873 -3.4960207397141936 4.588948380998003 -3.573616607344581 L 4.707750508812323 -3.7075513255839 L 4.939030696800644 -3.5022449868325465 L 4.820454428544911 -3.3685361281517965 C 4.7253307038062555 -3.2612294348700974 4.58870025397692 -3.199947264416826 4.44530170173964 -3.200270757007921 Z" fill="#404040" transform="matrix(1,0,0,1,0,0)" fill-rule="nonzero"></path></g><g clip-path="url(&quot;#SvgjsClipPath1008&quot;)"><path d=" M 4.898827695372991 -2.4976216702582406 C 4.768163722843226 -2.4977274480542606 4.641957926835359 -2.5451448831723056 4.543550609722955 -2.6311046693803837 C 4.434222779310285 -2.725121726769645 4.36711297078013 -2.8590159629401013 4.357216473892521 -3.0028695028069485 C 4.346568915781363 -3.1465363712305248 4.393911255133341 -3.2884820450607553 4.488666736987446 -3.396994432533149 L 4.737112251428027 -3.6827067741398176 L 4.970651035002172 -3.479433171415698 L 4.722205520561592 -3.19349497025046 C 4.681512059515559 -3.146839474654999 4.661179159436449 -3.0858407744176626 4.665740630916001 -3.0241003013137027 C 4.670046401652888 -2.962294459683047 4.698922372164732 -2.9047865409453655 4.745920774212729 -2.86441759339597 C 4.841163578634713 -2.781247282017792 4.985447285527915 -2.7895809964730116 5.070480959895574 -2.883163936758316 L 5.336543519905574 -3.1733934695366255 L 5.564435814515165 -2.9642475182893575 L 5.298373254505159 -2.674017985511047 C 5.195819669437687 -2.5617930785737624 5.050852820815548 -2.4977913212114613 4.898827695372991 -2.4976216702582406 Z" fill="#404040" transform="matrix(1,0,0,1,0,0)" fill-rule="nonzero"></path></g><g clip-path="url(&quot;#SvgjsClipPath1008&quot;)"><path d=" M 5.561951359370767 -2.0822659420253062 C 5.425549539253749 -2.081949299851864 5.294119562987451 -2.1334556419021506 5.1942519979987045 -2.226364340400864 C 4.978496437154593 -2.428958281828103 4.965125179890257 -2.767160608423664 5.164212676707257 -2.986155895471893 L 5.336543519905584 -3.174071048212408 L 5.5644358145151696 -2.96492509696514 L 5.392330830875421 -2.777235803783193 C 5.307298168481593 -2.6837612410013056 5.313030684495017 -2.539342065645595 5.405204825714608 -2.4529014776589326 C 5.49801193055331 -2.366877289025984 5.64277743305397 -2.3716121384466593 5.729765011397448 -2.4635168769123093 L 5.91045265826333 -2.654368203914408 L 6.1363122168456785 -2.442286078405594 L 5.955624569979795 -2.251208891844926 C 5.853382626450646 -2.142915533846164 5.710882930669446 -2.0817624802349455 5.561951359370767 -2.0822659420253062 Z" fill="#404040" transform="matrix(1,0,0,1,0,0)" fill-rule="nonzero"></path></g><g clip-path="url(&quot;#SvgjsClipPath1008&quot;)"><path d=" M 6.193906404284175 -1.6820428042173896 C 6.060648572935553 -1.681752307029127 5.932415966870162 -1.7328835417504793 5.835919003931153 -1.8247860452414209 C 5.630137602470499 -2.021910096073192 5.621571877432487 -2.348012286932092 5.816720941451642 -2.555667576813865 L 5.8844788090263584 -2.6279426355602507 L 6.110338367608707 -2.415860510051436 L 6.042580500033999 -2.34358545130507 C 5.96395673727757 -2.2597009377105257 5.967481796732724 -2.128165862040965 6.0504855845843855 -2.0486128677965123 C 6.133464040635015 -1.9701542085833754 6.2639518466375534 -1.972462838997279 6.344103010741435 -2.053807637643935 L 6.438738165787441 -2.1507013882757384 L 6.66008053319814 -1.9345537907124397 L 6.565445378152133 -1.8376600400806176 C 6.467672518642576 -1.73777660284592 6.333677938029128 -1.6816536447652588 6.193906404284175 -1.6820428042173896 Z" fill="#404040" transform="matrix(1,0,0,1,0,0)" fill-rule="nonzero"></path></g></g></g><defs><clipPath id="SvgjsClipPath1018"><path d=" M 0.356114393606223 -9.069683105887396 h 13.416283639350057 v 7.569683105887395 h -13.416283639350057 Z"></path></clipPath><clipPath id="SvgjsClipPath1008"><path d=" M 0.356114393606223 -9.069683105887396 L 13.77239803295628 -9.069683105887396 L 13.77239803295628 -1.5000000000000009 L 0.356114393606223 -1.5000000000000009 Z"></path></clipPath></defs></svg>